<?xml version="1.0" encoding="utf-8"?>
<!-- Generator: Adobe Illustrator 22.0.1, SVG Export Plug-In . SVG Version: 6.00 Build 0)  -->
<svg version="1.1" id="Capa_1" xmlns="http://www.w3.org/2000/svg" xmlns:xlink="http://www.w3.org/1999/xlink" x="0px" y="0px"
	 viewBox="0 0 350 350" style="enable-background:new 0 0 350 350;" xml:space="preserve">
<style type="text/css">
	.st0{clip-path:url(#SVGID_2_);fill:url(#SVGID_3_);}
	.st1{clip-path:url(#SVGID_5_);fill:url(#SVGID_6_);}
	.st2{clip-path:url(#SVGID_8_);fill:url(#SVGID_9_);}
	.st3{clip-path:url(#SVGID_11_);fill:url(#SVGID_12_);}
	.st4{clip-path:url(#SVGID_14_);fill:url(#SVGID_15_);}
	.st5{clip-path:url(#SVGID_17_);fill:url(#SVGID_18_);}
	.st6{clip-path:url(#SVGID_20_);fill:url(#SVGID_21_);}
	.st7{clip-path:url(#SVGID_23_);fill:url(#SVGID_24_);}
	.st8{clip-path:url(#SVGID_26_);fill:url(#SVGID_27_);}
	.st9{clip-path:url(#SVGID_29_);fill:url(#SVGID_30_);}
	.st10{clip-path:url(#SVGID_32_);fill:url(#SVGID_33_);}
	.st11{clip-path:url(#SVGID_35_);fill:url(#SVGID_36_);}
	.st12{clip-path:url(#SVGID_38_);fill:url(#SVGID_39_);}
	.st13{clip-path:url(#SVGID_41_);fill:url(#SVGID_42_);}
	.st14{clip-path:url(#SVGID_44_);fill:url(#SVGID_45_);}
	.st15{clip-path:url(#SVGID_47_);fill:url(#SVGID_48_);}
</style>
<g>
	<g>
		<g>
			<g>
				<defs>
					<path id="SVGID_1_" d="M149,322.4c0-5.4,2-10.8,6.1-14.9c4-4,9.2-6.2,14.9-6.2c5.6,0,10.9,2.2,14.9,6.2l-3.3,3.3l3.3-3.3
						c8.2,8.2,8.2,21.5,0,29.7s-21.5,8.2-29.7,0C151,333.1,149,327.7,149,322.4z M181.7,322.4c0-3-1.1-6-3.4-8.3l0,0
						c-2.2-2.2-5.2-3.4-8.3-3.4s-6.1,1.2-8.3,3.4c-4.6,4.6-4.6,12,0,16.6s12,4.6,16.6,0C180.6,328.4,181.7,325.4,181.7,322.4z"/>
				</defs>
				<clipPath id="SVGID_2_">
					<use xlink:href="#SVGID_1_"  style="overflow:visible;"/>
				</clipPath>
				
					<linearGradient id="SVGID_3_" gradientUnits="userSpaceOnUse" x1="174.65" y1="397.65" x2="174.65" y2="-55.35" gradientTransform="matrix(1 0 0 -1 0 351.7)">
					<stop  offset="0" style="stop-color:#30CEE7"/>
					<stop  offset="1" style="stop-color:#8265FC"/>
				</linearGradient>
				<polygon class="st0" points="178.2,407 -51.9,177 171.2,-46 401.2,184 				"/>
			</g>
		</g>
		<g>
			<g>
				<defs>
					<path id="SVGID_4_" d="M198.1,273.2c0-5.6,2.2-10.9,6.2-14.9c8.2-8.2,21.5-8.2,29.7,0l0,0c4,4,6.2,9.2,6.2,14.9
						s-2.2,10.9-6.2,14.9c-8.2,8.2-21.5,8.2-29.7,0C200.3,284.1,198.1,278.8,198.1,273.2z M230.9,273.2c0-3.1-1.2-6.1-3.4-8.3l0,0
						c-4.6-4.6-12-4.6-16.6,0c-2.2,2.2-3.4,5.2-3.4,8.3c0,3.1,1.2,6.1,3.4,8.3c4.6,4.6,12,4.6,16.6,0
						C229.7,279.3,230.9,276.4,230.9,273.2z"/>
				</defs>
				<clipPath id="SVGID_5_">
					<use xlink:href="#SVGID_4_"  style="overflow:visible;"/>
				</clipPath>
				
					<linearGradient id="SVGID_6_" gradientUnits="userSpaceOnUse" x1="174.65" y1="397.65" x2="174.65" y2="-55.35" gradientTransform="matrix(1 0 0 -1 0 351.7)">
					<stop  offset="0" style="stop-color:#30CEE7"/>
					<stop  offset="1" style="stop-color:#8265FC"/>
				</linearGradient>
				<polygon class="st1" points="178.2,407 -51.9,177 171.2,-46 401.2,184 				"/>
			</g>
		</g>
		<g>
			<g>
				<defs>
					<path id="SVGID_7_" d="M247.3,224.1c0-5.6,2.2-10.9,6.2-14.9c4-4,9.2-6.2,14.9-6.2c5.6,0,10.8,2.2,14.8,6.1l0.1,0.1
						c4,4,6.2,9.2,6.2,14.9l0,0c0,5.6-2.2,10.9-6.2,14.9c-8.2,8.2-21.5,8.2-29.7,0C249.4,235,247.3,229.7,247.3,224.1z M276.6,215.8
						L276.6,215.8c-2.3-2.3-5.2-3.5-8.4-3.5c-3.1,0-6.1,1.2-8.3,3.4c-2.2,2.2-3.4,5.2-3.4,8.3s1.2,6.1,3.4,8.3
						c4.6,4.6,12,4.6,16.6,0c2.2-2.2,3.4-5.2,3.4-8.3C280,221,278.8,218,276.6,215.8z"/>
				</defs>
				<clipPath id="SVGID_8_">
					<use xlink:href="#SVGID_7_"  style="overflow:visible;"/>
				</clipPath>
				
					<linearGradient id="SVGID_9_" gradientUnits="userSpaceOnUse" x1="174.65" y1="397.65" x2="174.65" y2="-55.35" gradientTransform="matrix(1 0 0 -1 0 351.7)">
					<stop  offset="0" style="stop-color:#30CEE7"/>
					<stop  offset="1" style="stop-color:#8265FC"/>
				</linearGradient>
				<polygon class="st2" points="178.2,407 -51.9,177 171.2,-46 401.2,184 				"/>
			</g>
		</g>
		<g>
			<g>
				<defs>
					<path id="SVGID_10_" d="M296.4,174.9c0-5.6,2.2-10.9,6.2-14.8c8.2-8.2,21.5-8.2,29.7,0l0,0c4,4,6.2,9.2,6.2,14.9
						c0,5.6-2.2,10.9-6.2,14.8c-8.2,8.2-21.5,8.2-29.7,0C298.6,185.8,296.4,180.5,296.4,174.9z M325.7,166.7
						c-4.6-4.6-12.1-4.6-16.6,0c-2.2,2.2-3.4,5.2-3.4,8.3s1.2,6.1,3.4,8.3c4.6,4.6,12,4.6,16.6,0c2.2-2.2,3.4-5.2,3.4-8.3
						C329.2,171.8,327.9,168.9,325.7,166.7L325.7,166.7z"/>
				</defs>
				<clipPath id="SVGID_11_">
					<use xlink:href="#SVGID_10_"  style="overflow:visible;"/>
				</clipPath>
				
					<linearGradient id="SVGID_12_" gradientUnits="userSpaceOnUse" x1="174.65" y1="397.65" x2="174.65" y2="-55.35" gradientTransform="matrix(1 0 0 -1 0 351.7)">
					<stop  offset="0" style="stop-color:#30CEE7"/>
					<stop  offset="1" style="stop-color:#8265FC"/>
				</linearGradient>
				<polygon class="st3" points="178.2,407 -51.9,177 171.2,-46 401.2,184 				"/>
			</g>
		</g>
		<g>
			<g>
				<defs>
					<path id="SVGID_13_" d="M11.5,174.9c0-3,1.2-5.7,3.2-7.8c2.1-2.1,4.9-3.2,7.8-3.2c3,0,5.7,1.2,7.8,3.2l-3.3,3.3l3.3-3.3
						c2.1,2.1,3.2,4.9,3.2,7.8c0,3-1.2,5.7-3.2,7.8c-4.3,4.3-11.3,4.3-15.7,0C12.6,180.7,11.5,177.9,11.5,174.9z M24.4,174.9
						c0-0.3-0.1-0.8-0.5-1.3l0,0c-0.5-0.5-1-0.5-1.3-0.5c-0.3,0-0.8,0.1-1.3,0.5c-0.5,0.5-0.5,1-0.5,1.3s0.1,0.8,0.5,1.3
						c0.7,0.7,1.9,0.7,2.6,0C24.3,175.8,24.4,175.2,24.4,174.9z"/>
				</defs>
				<clipPath id="SVGID_14_">
					<use xlink:href="#SVGID_13_"  style="overflow:visible;"/>
				</clipPath>
				
					<linearGradient id="SVGID_15_" gradientUnits="userSpaceOnUse" x1="174.65" y1="397.65" x2="174.65" y2="-55.35" gradientTransform="matrix(1 0 0 -1 0 351.7)">
					<stop  offset="0" style="stop-color:#30CEE7"/>
					<stop  offset="1" style="stop-color:#8265FC"/>
				</linearGradient>
				<polygon class="st4" points="178.2,407 -51.9,177 171.2,-46 401.2,184 				"/>
			</g>
		</g>
		<g>
			<g>
				<defs>
					<path id="SVGID_16_" d="M57.7,224.1c0-3.7,1.4-7.2,4.1-9.9l0.1-0.1c5.5-5.5,14.4-5.5,19.9,0l0,0c5.5,5.5,5.5,14.4,0,19.9
						l-0.1,0.1c-5.5,5.4-14.4,5.4-19.8-0.1C59.1,231.4,57.7,227.8,57.7,224.1z M68.4,220.7L68.4,220.7c-0.9,0.9-1.4,2.1-1.4,3.4
						c0,1.3,0.5,2.5,1.4,3.4c1.9,1.9,4.9,1.9,6.8,0l0.1-0.1c1.8-1.9,1.8-4.9,0-6.7C73.2,218.8,70.2,218.8,68.4,220.7z"/>
				</defs>
				<clipPath id="SVGID_17_">
					<use xlink:href="#SVGID_16_"  style="overflow:visible;"/>
				</clipPath>
				
					<linearGradient id="SVGID_18_" gradientUnits="userSpaceOnUse" x1="174.65" y1="397.65" x2="174.65" y2="-55.35" gradientTransform="matrix(1 0 0 -1 0 351.7)">
					<stop  offset="0" style="stop-color:#30CEE7"/>
					<stop  offset="1" style="stop-color:#8265FC"/>
				</linearGradient>
				<polygon class="st5" points="178.2,407 -51.9,177 171.2,-46 401.2,184 				"/>
			</g>
		</g>
		<g>
			<g>
				<defs>
					<path id="SVGID_19_" d="M106.8,175c0-3.6,1.4-7.2,4.1-9.9c5.5-5.5,14.4-5.5,19.9,0s5.5,14.4,0,19.9s-14.4,5.5-19.9,0
						C108.2,182.2,106.8,178.6,106.8,175z M125.7,174.9c0-1.2-0.5-2.5-1.4-3.4c-1.9-1.9-4.9-1.9-6.8,0s-1.9,4.9,0,6.8
						c1.9,1.9,4.9,1.9,6.8,0C125.2,177.4,125.7,176.2,125.7,174.9z"/>
				</defs>
				<clipPath id="SVGID_20_">
					<use xlink:href="#SVGID_19_"  style="overflow:visible;"/>
				</clipPath>
				
					<linearGradient id="SVGID_21_" gradientUnits="userSpaceOnUse" x1="174.65" y1="397.65" x2="174.65" y2="-55.35" gradientTransform="matrix(1 0 0 -1 0 351.7)">
					<stop  offset="0" style="stop-color:#30CEE7"/>
					<stop  offset="1" style="stop-color:#8265FC"/>
				</linearGradient>
				<polygon class="st6" points="178.2,407 -51.9,177 171.2,-46 401.2,184 				"/>
			</g>
		</g>
		<g>
			<g>
				<defs>
					<path id="SVGID_22_" d="M103.3,273.9c0-4.5,1.7-9,5.1-12.4c3.3-3.3,7.7-5.1,12.4-5.1s9.1,1.8,12.4,5.1l0,0
						c3.3,3.3,5.1,7.7,5.1,12.4c0,4.7-1.8,9.1-5.1,12.4c-6.8,6.8-18,6.8-24.8,0C105,282.9,103.3,278.4,103.3,273.9z M129.1,273.9
						c0-2.2-0.9-4.3-2.4-5.9l0,0c-1.6-1.6-3.6-2.4-5.9-2.4c-2.2,0-4.3,0.9-5.9,2.4c-3.2,3.2-3.2,8.5,0,11.7s8.5,3.2,11.7,0
						C128.3,278.2,129.1,276.1,129.1,273.9z"/>
				</defs>
				<clipPath id="SVGID_23_">
					<use xlink:href="#SVGID_22_"  style="overflow:visible;"/>
				</clipPath>
				
					<linearGradient id="SVGID_24_" gradientUnits="userSpaceOnUse" x1="174.65" y1="397.65" x2="174.65" y2="-55.35" gradientTransform="matrix(1 0 0 -1 0 351.7)">
					<stop  offset="0" style="stop-color:#30CEE7"/>
					<stop  offset="1" style="stop-color:#8265FC"/>
				</linearGradient>
				<polygon class="st7" points="178.2,407 -51.9,177 171.2,-46 401.2,184 				"/>
			</g>
		</g>
		<g>
			<g>
				<defs>
					<path id="SVGID_25_" d="M153.2,224.1c0-4.7,1.8-9.1,5.1-12.4c6.8-6.8,18-6.8,24.8,0l0.1,0.1c3.3,3.3,5.1,7.7,5.1,12.3
						c0,4.7-1.8,9.1-5.1,12.4c-6.8,6.8-18,6.8-24.8,0l-0.1-0.1C155,233.1,153.2,228.7,153.2,224.1z M176.5,218.2
						c-3.2-3.2-8.4-3.2-11.7,0c-1.6,1.6-2.4,3.6-2.4,5.9c0,2.2,0.9,4.3,2.4,5.9l0.1,0.1c3.2,3.2,8.4,3.2,11.7,0
						c1.6-1.6,2.4-3.6,2.4-5.9S178.1,219.8,176.5,218.2L176.5,218.2z"/>
				</defs>
				<clipPath id="SVGID_26_">
					<use xlink:href="#SVGID_25_"  style="overflow:visible;"/>
				</clipPath>
				
					<linearGradient id="SVGID_27_" gradientUnits="userSpaceOnUse" x1="174.65" y1="397.65" x2="174.65" y2="-55.35" gradientTransform="matrix(1 0 0 -1 0 351.7)">
					<stop  offset="0" style="stop-color:#30CEE7"/>
					<stop  offset="1" style="stop-color:#8265FC"/>
				</linearGradient>
				<polygon class="st8" points="178.2,407 -51.9,177 171.2,-46 401.2,184 				"/>
			</g>
		</g>
		<g>
			<g>
				<defs>
					<path id="SVGID_28_" d="M104,76.7c0-4.7,1.8-9.1,5.1-12.4c6.8-6.8,18-6.8,24.8,0s6.8,17.9,0.1,24.7l-0.1,0.1
						c-3.3,3.3-7.7,5.1-12.4,5.1c-4.7,0-9.1-1.8-12.4-5.1C105.9,85.8,104,81.4,104,76.7z M129.8,76.7c0-2.1-0.8-4.2-2.4-5.8
						c-3.2-3.2-8.5-3.2-11.7,0s-3.2,8.5,0,11.7s8.4,3.2,11.7,0l0,0C129,80.9,129.8,78.8,129.8,76.7z"/>
				</defs>
				<clipPath id="SVGID_29_">
					<use xlink:href="#SVGID_28_"  style="overflow:visible;"/>
				</clipPath>
				
					<linearGradient id="SVGID_30_" gradientUnits="userSpaceOnUse" x1="174.65" y1="397.65" x2="174.65" y2="-55.35" gradientTransform="matrix(1 0 0 -1 0 351.7)">
					<stop  offset="0" style="stop-color:#30CEE7"/>
					<stop  offset="1" style="stop-color:#8265FC"/>
				</linearGradient>
				<polygon class="st9" points="178.2,407 -51.9,177 171.2,-46 401.2,184 				"/>
			</g>
		</g>
		<g>
			<g>
				<defs>
					<path id="SVGID_31_" d="M153.2,125.8c0-4.5,1.7-9,5.1-12.4c6.8-6.8,18-6.8,24.8,0s6.8,18,0,24.8c-6.8,6.8-18,6.8-24.8,0
						C154.9,134.8,153.2,130.3,153.2,125.8z M179,125.8c0-2.1-0.8-4.2-2.4-5.8c-3.2-3.2-8.5-3.2-11.7,0s-3.2,8.5,0,11.7
						s8.5,3.2,11.7,0C178.2,130,179,127.9,179,125.8z"/>
				</defs>
				<clipPath id="SVGID_32_">
					<use xlink:href="#SVGID_31_"  style="overflow:visible;"/>
				</clipPath>
				
					<linearGradient id="SVGID_33_" gradientUnits="userSpaceOnUse" x1="174.65" y1="397.65" x2="174.65" y2="-55.35" gradientTransform="matrix(1 0 0 -1 0 351.7)">
					<stop  offset="0" style="stop-color:#30CEE7"/>
					<stop  offset="1" style="stop-color:#8265FC"/>
				</linearGradient>
				<polygon class="st10" points="178.2,407 -51.9,177 171.2,-46 401.2,184 				"/>
			</g>
		</g>
		<g>
			<g>
				<defs>
					<path id="SVGID_34_" d="M202.3,174.9c0-4.5,1.7-9,5.1-12.4c6.8-6.8,18-6.8,24.8,0l0,0c6.8,6.8,6.8,18,0,24.8
						s-17.9,6.8-24.7,0.1l-0.1-0.1C204,183.9,202.3,179.4,202.3,174.9z M228.1,174.9c0-2.1-0.8-4.2-2.4-5.9l0,0
						c-3.2-3.2-8.5-3.2-11.7,0c-1.6,1.6-2.4,3.6-2.4,5.9c0,2.2,0.8,4.3,2.4,5.8l0,0c3.2,3.2,8.5,3.2,11.7,0
						C227.3,179.2,228.1,177.1,228.1,174.9z"/>
				</defs>
				<clipPath id="SVGID_35_">
					<use xlink:href="#SVGID_34_"  style="overflow:visible;"/>
				</clipPath>
				
					<linearGradient id="SVGID_36_" gradientUnits="userSpaceOnUse" x1="174.65" y1="397.65" x2="174.65" y2="-55.35" gradientTransform="matrix(1 0 0 -1 0 351.7)">
					<stop  offset="0" style="stop-color:#30CEE7"/>
					<stop  offset="1" style="stop-color:#8265FC"/>
				</linearGradient>
				<polygon class="st11" points="178.2,407 -51.9,177 171.2,-46 401.2,184 				"/>
			</g>
		</g>
		<g>
			<g>
				<defs>
					<path id="SVGID_37_" d="M149,27.6c0-5.4,2-10.8,6.1-14.9c8.2-8.2,21.5-8.2,29.7,0l0,0c4,4,6.2,9.2,6.2,14.9
						c0,5.6-2.2,10.9-6.2,14.8c-8.2,8.2-21.5,8.2-29.7,0l-0.1-0.1C151,38.3,149,32.9,149,27.6z M178.3,19.2
						c-4.7-4.6-12.1-4.6-16.6,0c-4.6,4.6-4.6,12,0,16.6l0.1,0.1c4.5,4.5,12,4.5,16.5-0.1c2.2-2.2,3.4-5.2,3.4-8.3
						C181.7,24.4,180.5,21.5,178.3,19.2L178.3,19.2z"/>
				</defs>
				<clipPath id="SVGID_38_">
					<use xlink:href="#SVGID_37_"  style="overflow:visible;"/>
				</clipPath>
				
					<linearGradient id="SVGID_39_" gradientUnits="userSpaceOnUse" x1="174.65" y1="397.65" x2="174.65" y2="-55.35" gradientTransform="matrix(1 0 0 -1 0 351.7)">
					<stop  offset="0" style="stop-color:#30CEE7"/>
					<stop  offset="1" style="stop-color:#8265FC"/>
				</linearGradient>
				<polygon class="st12" points="178.2,407 -51.9,177 171.2,-46 401.2,184 				"/>
			</g>
		</g>
		<g>
			<g>
				<defs>
					<path id="SVGID_40_" d="M198.1,76.7c0-5.4,2-10.8,6.1-14.8c4-4,9.2-6.2,14.9-6.2c5.6,0,10.9,2.2,14.8,6.2L234,62
						c8.1,8.2,8.1,21.5-0.1,29.6c-8.2,8.2-21.5,8.2-29.7,0C200.2,87.4,198.1,82,198.1,76.7z M227.4,68.3c-2.2-2.2-5.1-3.4-8.2-3.4
						c-3.1,0-6.1,1.2-8.3,3.4c-4.6,4.6-4.6,12,0,16.6s12,4.6,16.6,0C232,80.4,232,72.9,227.4,68.3L227.4,68.3z"/>
				</defs>
				<clipPath id="SVGID_41_">
					<use xlink:href="#SVGID_40_"  style="overflow:visible;"/>
				</clipPath>
				
					<linearGradient id="SVGID_42_" gradientUnits="userSpaceOnUse" x1="174.65" y1="397.65" x2="174.65" y2="-55.35" gradientTransform="matrix(1 0 0 -1 0 351.7)">
					<stop  offset="0" style="stop-color:#30CEE7"/>
					<stop  offset="1" style="stop-color:#8265FC"/>
				</linearGradient>
				<polygon class="st13" points="178.2,407 -51.9,177 171.2,-46 401.2,184 				"/>
			</g>
		</g>
		<g>
			<g>
				<defs>
					<path id="SVGID_43_" d="M247.3,125.8c0-5.6,2.2-10.9,6.2-14.8c4-4,9.2-6.2,14.8-6.2c5.6,0,10.8,2.2,14.8,6.1l0.1,0.1
						c8.2,8.2,8.2,21.5,0,29.7s-21.5,8.2-29.7,0l-0.1-0.1C249.4,136.6,247.3,131.4,247.3,125.8z M276.6,117.6L276.6,117.6
						c-2.3-2.3-5.2-3.5-8.4-3.5c-3.1,0-6.1,1.2-8.3,3.4c-2.2,2.2-3.4,5.2-3.4,8.3s1.2,6.1,3.4,8.3l0.1,0.1c4.6,4.5,12,4.5,16.6,0
						C281.1,129.6,281.2,122.1,276.6,117.6z"/>
				</defs>
				<clipPath id="SVGID_44_">
					<use xlink:href="#SVGID_43_"  style="overflow:visible;"/>
				</clipPath>
				
					<linearGradient id="SVGID_45_" gradientUnits="userSpaceOnUse" x1="174.65" y1="397.65" x2="174.65" y2="-55.35" gradientTransform="matrix(1 0 0 -1 0 351.7)">
					<stop  offset="0" style="stop-color:#30CEE7"/>
					<stop  offset="1" style="stop-color:#8265FC"/>
				</linearGradient>
				<polygon class="st14" points="178.2,407 -51.9,177 171.2,-46 401.2,184 				"/>
			</g>
		</g>
		<g>
			<g>
				<defs>
					<path id="SVGID_46_" d="M57.7,125.8c0-3.6,1.4-7.2,4.1-9.9c5.5-5.5,14.4-5.5,19.9,0l0,0c5.5,5.5,5.5,14.4,0,19.9h-0.1
						c-2.6,2.6-6.2,4.1-9.9,4.1c-3.8,0-7.3-1.5-9.9-4.1C59,133,57.7,129.4,57.7,125.8z M75.1,122.4c-1.9-1.9-4.9-1.9-6.8,0
						s-1.9,4.9,0,6.8c0.9,0.9,2.1,1.4,3.4,1.4s2.5-0.5,3.4-1.4l0.1-0.1C77,127.3,77,124.3,75.1,122.4L75.1,122.4z"/>
				</defs>
				<clipPath id="SVGID_47_">
					<use xlink:href="#SVGID_46_"  style="overflow:visible;"/>
				</clipPath>
				
					<linearGradient id="SVGID_48_" gradientUnits="userSpaceOnUse" x1="174.65" y1="397.65" x2="174.65" y2="-55.35" gradientTransform="matrix(1 0 0 -1 0 351.7)">
					<stop  offset="0" style="stop-color:#30CEE7"/>
					<stop  offset="1" style="stop-color:#8265FC"/>
				</linearGradient>
				<polygon class="st15" points="178.2,407 -51.9,177 171.2,-46 401.2,184 				"/>
			</g>
		</g>
	</g>
</g>
</svg>
